<svg width="720" height="490" viewBox="0 0 720 490" fill="none" xmlns="http://www.w3.org/2000/svg">
<path opacity="0.2" fill-rule="evenodd" clip-rule="evenodd" d="M628.83 212.86C621.2 207.245 604.068 202.062 593.702 199.902C552.959 190.976 486.589 216.171 443.974 213.435C388.69 209.404 369.686 171.109 343.34 131.661C329.375 110.498 320.449 84.8712 296.982 72.0579C280.569 63.1318 259.118 61.5482 238.242 63.1318C198.075 66.4431 155.172 82.2797 125.371 111.074C107.519 128.206 95.1372 148.793 86.2112 169.669C63.4641 222.074 60.7286 276.206 79.0127 322.852C97.5847 369.354 138.184 403.906 191.74 419.167C237.235 431.692 289.207 428.669 340.316 424.926C407.982 419.599 479.391 413.264 545.328 384.327C582.328 368.202 621.344 342.144 640.78 308.743C659.64 277.358 654.745 232.439 628.83 212.86Z" fill="url(#paint0_linear)"/>
<path d="M239.538 489.712C321.276 489.712 387.538 485.973 387.538 481.362C387.538 476.75 321.276 473.012 239.538 473.012C157.8 473.012 91.538 476.75 91.538 481.362C91.538 485.973 157.8 489.712 239.538 489.712Z" fill="#E3E9EF"/>
<path opacity="0.2" fill-rule="evenodd" clip-rule="evenodd" d="M558.717 17.4937C593.99 44.2719 610.978 84.2953 603.348 127.63C599.59 148.953 589.827 163.351 577.216 169.703C572.425 172.339 566.921 173.838 561.066 173.838C542.538 173.838 527.519 158.818 527.519 140.29C527.519 132.165 530.408 124.714 535.215 118.908C539.546 113.088 545.626 109.202 552.688 107.798C555.366 107.109 558.174 106.743 561.066 106.743C566.499 106.743 571.629 108.034 576.168 110.326C578.559 81.0508 566.567 56.2381 543.313 36.6416L558.717 17.4937ZM474.208 2.37695C509.48 29.2992 526.468 69.1786 518.838 112.513C516.203 127.919 510.396 139.71 502.654 147.469C496.514 154.296 487.611 158.589 477.705 158.589C474.012 158.589 470.458 157.992 467.135 156.89C450.316 152.174 441.454 137.021 444.55 118.848C447.176 104.121 457.044 94.2823 469.847 92.4191C472.368 91.8142 474.999 91.4938 477.705 91.4938C482.704 91.4938 487.447 92.5868 491.708 94.547C493.877 65.4624 481.891 40.9811 458.803 21.5248L474.208 2.37695Z" fill="url(#paint1_linear)"/>
<path d="M602.196 474.163C610.978 489.28 552.815 489.136 501.13 481.362C458.947 475.171 443.974 480.642 443.974 474.163C443.974 467.541 479.391 471.716 523.013 471.716C566.78 471.716 598.453 467.829 602.196 474.163Z" fill="#E3E9EF"/>
<path opacity="0.2" fill-rule="evenodd" clip-rule="evenodd" d="M322.608 68.3147L327.791 49.0229C320.161 34.9139 323.904 17.3497 336.573 7.41583C349.387 -2.37407 367.239 -1.51025 378.9 9.43139C390.562 20.373 392.433 38.3692 383.507 51.6143C374.437 65.0034 357.161 69.6104 342.476 62.6999L322.608 68.3147Z" fill="url(#paint2_linear)"/>
<path fill-rule="evenodd" clip-rule="evenodd" d="M347.371 17.0617C355.289 13.7505 362.2 22.3886 358.745 28.5793C362.2 22.6765 373.285 24.2602 374.149 32.8983C375.301 41.8244 364.359 49.7427 347.227 47.8711C337.581 33.7622 339.165 20.373 347.371 17.0617Z" fill="url(#paint3_linear)"/>
<path d="M283.153 313.658H178.971C178.971 313.658 170.008 370.377 172.653 411.962C177.796 414.166 183.233 416.223 188.669 417.839C200.572 421.513 213.062 424.011 225.846 425.48C226.433 403.88 227.903 378.753 230.989 372.434L238.042 426.656C253.618 427.832 269.634 427.685 285.651 427.097C286.974 394.035 287.855 345.397 283.153 313.658Z" fill="#222C49"/>
<path d="M293.733 263.11C292.851 260.171 293.439 256.35 292.41 253.412C291.529 251.061 290.941 249.297 290.206 246.946L288.149 245.918C281.684 253.412 278.451 263.404 279.48 273.249C280.214 278.833 281.978 279.567 287.414 281.184C292.851 282.8 298.288 279.42 302.696 275.894C305.047 273.983 307.692 271.632 307.398 268.547C307.398 268.253 307.252 267.812 307.252 267.665C306.958 267.371 306.37 267.224 305.929 267.224C304.019 267.371 302.402 268.106 300.639 268.987C298.876 269.722 296.672 269.869 295.496 268.253C295.055 267.371 294.174 265.461 294.174 264.579L293.733 263.11Z" fill="#E5B68C"/>
<path fill-rule="evenodd" clip-rule="evenodd" d="M169.567 37.5532C169.42 37.4071 149.73 54.7463 148.26 56.2157C143.264 61.9464 138.856 67.9711 134.301 73.8487C129.893 79.8733 125.044 86.3388 120.342 92.3634C116.227 97.5064 110.643 102.502 110.496 109.703C110.643 113.964 112.26 117.931 114.905 121.311C133.86 147.32 157.371 159.663 183.673 178.324C183.233 195.517 184.996 224.464 184.408 245.036C183.673 268.987 180.882 299.992 175.739 323.503C213.503 323.797 249.356 323.797 287.12 323.503C281.684 300.433 278.451 269.575 277.422 245.771C277.128 227.109 278.157 208.3 280.508 189.786C280.802 187.435 281.684 184.349 284.035 184.055C288.002 188.61 292.704 191.99 296.525 196.839C300.933 202.276 305.782 207.713 310.19 213.15C311.66 214.619 312.541 216.529 312.688 218.733C312.688 220.937 310.925 222.848 309.456 224.317C302.843 231.076 295.202 239.599 288.149 246.065L293.733 263.11C309.603 250.032 325.619 241.95 337.962 225.64C341.048 221.966 344.134 217.117 342.664 212.562C341.93 210.505 340.607 208.594 339.138 207.125L315.627 179.5L297.259 157.899C291.529 151.14 280.361 137.475 270.075 139.532C263.904 140.707 257.879 144.822 251.561 145.997C245.536 147.173 239.364 147.76 233.193 147.173C229.96 147.026 226.727 146.438 223.642 145.703C221.584 144.969 219.527 144.234 217.47 143.646C208.213 141.295 195.135 142.911 185.878 144.675C179.853 145.703 156.489 124.838 144.293 113.67C143.264 112.788 142.236 111.76 141.795 110.437C141.501 109.115 141.648 107.498 142.089 106.176C142.089 106.176 174.71 62.0934 177.943 49.4564" fill="url(#paint4_linear)"/>
<path d="M188.963 242.244C200.131 246.211 211.886 248.416 223.789 248.856C236.719 249.738 249.65 249.15 262.581 247.093C269.047 246.065 271.839 245.624 277.716 243.126C279.039 242.685 278.451 240.334 277.275 241.068C266.255 245.33 257.879 246.065 246.124 246.652C233.193 247.534 220.409 246.799 207.625 244.595C201.453 243.567 195.429 242.097 189.404 240.04C188.229 239.599 187.788 241.803 188.963 242.244Z" fill="#60375D"/>
<path d="M285.596 137.394C283.831 135.92 282.361 134.299 280.596 132.825C276.625 128.846 271.624 125.015 271.183 119.12C270.889 112.341 271.918 105.415 271.624 98.6363C271.477 91.8575 272.801 83.4577 272.654 76.3841C272.654 66.2159 271.771 55.9003 270.3 45.732C269.859 41.0163 268.388 36.1532 266.182 31.8796C251.916 4.61697 206.616 6.68009 192.644 32.9112C187.055 43.5215 185.29 56.0476 185.29 67.8369C185.143 82.2787 184.996 97.0153 188.82 111.015C192.644 125.015 205.145 149.772 218.088 156.109C225.442 159.351 233.237 160.677 241.179 160.235C248.68 159.941 258.24 159.498 265.741 160.972C267.212 161.267 284.861 167.751 291.479 171.877C299.127 176.593 311.629 181.309 319.424 185.14C316.335 177.919 312.07 172.319 307.952 166.867C306.481 164.804 304.863 162.888 303.393 161.119C301.039 157.877 299.275 153.899 297.068 150.509C296.186 149.183 295.303 148.004 294.274 146.53C291.627 143.288 288.685 140.341 285.596 137.394Z" fill="#60375D"/>
<path d="M265.544 70.9192C265.544 78.8209 262.586 86.2837 260.072 93.0148C254.008 108.672 243.506 119.061 229.455 119.061C215.404 119.061 204.755 108.379 198.839 92.8685C196.324 86.2837 193.366 78.8209 193.366 70.7729C193.366 44.1411 209.488 22.4845 229.455 22.4845C249.423 22.4845 265.544 44.1411 265.544 70.9192Z" fill="#E5B68C"/>
<path d="M178.09 49.6033C182.204 44.4603 182.204 44.4603 186.025 41.8154C188.523 38.2888 196.457 37.4071 199.396 34.1744C200.719 32.8519 202.335 31.8233 203.951 30.9417C204.686 30.6478 205.274 30.207 206.009 30.06C207.919 29.9131 209.241 31.8233 210.123 33.5866C211.445 33.8805 212.621 32.5581 212.621 31.2356C212.621 29.9131 212.18 28.7376 211.298 27.562C211.005 27.1212 210.564 26.5334 210.123 26.2396C209.241 25.9457 208.36 25.7987 207.625 25.9457C204.686 26.2396 198.955 27.2681 198.955 27.2681C201.16 26.3865 203.511 25.9457 205.862 25.5048C206.596 25.3579 207.331 25.3579 208.066 25.3579C209.388 25.5048 210.564 25.7987 211.739 26.6804C212.474 27.1212 213.062 27.709 213.797 28.1498C214.531 28.5906 215.56 28.5906 216.148 28.2967C216.295 28.2967 216.295 28.1498 216.441 28.1498C216.441 28.0029 216.441 27.8559 216.441 27.709C216.441 26.8273 216.148 26.2396 215.707 25.5048C214.972 24.6232 214.237 24.0354 213.209 23.5946L209.535 21.6844C208.066 21.3905 206.449 21.2435 204.98 21.2435C206.302 20.9496 207.772 20.8027 209.094 20.8027C209.241 20.8027 209.388 20.8027 209.535 20.8027C209.682 20.8027 209.682 20.9496 209.829 21.0966C210.858 22.566 212.18 24.0354 213.797 25.064C214.09 25.211 214.531 25.3579 214.825 25.211C214.972 25.064 214.972 25.064 214.972 24.9171C215.266 23.5946 214.972 21.9782 214.09 20.8027C213.356 19.6272 212.621 18.4516 211.739 17.2761C211.445 16.5414 210.711 16.1006 209.976 15.8067C208.947 15.6597 207.919 15.8067 207.037 16.5414C204.098 18.0108 199.543 19.7741 199.543 19.7741C203.511 17.57 205.568 15.6597 209.682 14.4842C209.976 14.3373 210.417 14.4842 210.711 14.7781C212.474 17.57 216.295 22.4191 217.617 21.0966C217.911 20.3619 217.911 19.6272 217.764 18.8925C216.882 16.3945 215.854 13.7495 214.531 11.3984C213.797 10.076 212.768 8.45959 211.152 8.45959C210.417 8.45959 209.829 8.60654 209.241 8.90042C193.519 15.6597 184.114 30.06 169.273 38.2888L178.09 49.6033Z" fill="#E5B68C"/>
<path d="M203.951 268.253C202.923 268.4 201.453 266.196 201.013 265.461C200.278 264.285 199.837 263.11 199.543 261.787C198.662 258.995 198.221 256.204 197.486 253.265C196.457 249.003 195.282 243.273 191.167 240.775L190.874 242.832C193.812 241.803 196.457 240.04 198.515 237.689C199.837 235.926 202.629 232.693 201.306 230.489C199.984 228.285 196.31 229.754 194.988 231.223C192.49 233.575 190.727 236.807 190.286 240.187L191.314 239.305H190.286L191.314 240.187C190.874 236.807 189.257 233.721 186.759 231.37C185.29 230.048 181.616 228.138 180.147 230.489C178.677 232.84 181.322 235.779 182.498 237.395C184.555 239.746 187.2 241.656 190.286 242.832L189.992 240.775C185.878 243.126 184.849 249.15 183.673 253.265C182.939 256.057 182.498 258.848 181.616 261.787C181.322 262.963 180.735 264.138 180.294 265.167C179.853 265.902 178.237 268.253 177.208 268.106C175.886 267.959 175.151 270.016 176.473 270.31C178.53 270.604 180 269.134 181.175 267.518C182.645 265.314 183.673 262.522 184.261 260.024C184.996 256.938 185.584 253.706 186.612 250.62C187.494 247.828 188.376 244.301 191.021 242.685C191.314 242.538 191.461 241.95 191.461 241.656C191.461 241.215 191.167 240.775 190.58 240.775C187.2 239.599 183.086 236.66 181.91 232.987C181.469 231.223 182.792 231.664 183.967 232.252C184.849 232.693 185.731 233.574 186.171 234.456C187.494 236.366 188.376 238.571 188.669 240.775C188.816 241.215 189.11 241.656 189.698 241.656H190.727C191.167 241.656 191.755 241.362 191.755 240.775C192.049 238.571 192.931 236.513 194.106 234.603C194.547 233.721 195.429 232.84 196.31 232.252C197.339 231.517 199.102 231.076 198.515 232.987C197.339 236.513 193.078 239.599 189.845 240.775C189.551 240.922 189.11 241.215 188.963 241.656C188.963 242.097 189.11 242.538 189.404 242.685C191.902 244.154 192.784 247.681 193.665 250.326C194.694 253.559 195.429 256.791 196.017 260.024C196.457 262.522 197.339 265.167 198.955 267.371C200.131 268.841 201.894 270.751 203.951 270.457C205.862 270.163 205.274 267.959 203.951 268.253Z" fill="#60375D"/>
<defs>
<linearGradient id="paint0_linear" x1="-46.8664" y1="472.991" x2="353.759" y2="-117.771" gradientUnits="userSpaceOnUse">
<stop stop-color="#990024"/>
<stop offset="0.628794" stop-color="#FB406C"/>
<stop offset="0.976806" stop-color="#FF84A1"/>
</linearGradient>
<linearGradient id="paint1_linear" x1="412.572" y1="194.849" x2="612.74" y2="21.4699" gradientUnits="userSpaceOnUse">
<stop stop-color="#990024"/>
<stop offset="0.628794" stop-color="#FB406C"/>
<stop offset="0.976806" stop-color="#FF84A1"/>
</linearGradient>
<linearGradient id="paint2_linear" x1="309.667" y1="76.6108" x2="389.126" y2="4.70169" gradientUnits="userSpaceOnUse">
<stop stop-color="#990024"/>
<stop offset="0.628794" stop-color="#FB406C"/>
<stop offset="0.976806" stop-color="#FF84A1"/>
</linearGradient>
<linearGradient id="paint3_linear" x1="334.042" y1="52.0466" x2="371.559" y2="15.5013" gradientUnits="userSpaceOnUse">
<stop stop-color="#990024"/>
<stop offset="0.628794" stop-color="#FB406C"/>
<stop offset="0.976806" stop-color="#FF84A1"/>
</linearGradient>
<linearGradient id="paint4_linear" x1="65.2475" y1="358.79" x2="389.117" y2="116.331" gradientUnits="userSpaceOnUse">
<stop stop-color="#990024"/>
<stop offset="0.628794" stop-color="#FB406C"/>
<stop offset="0.976806" stop-color="#FF84A1"/>
</linearGradient>
</defs>
</svg>
