<svg width="582" height="490" viewBox="0 0 582 490" fill="none" xmlns="http://www.w3.org/2000/svg">
<path d="M164.291 489.098C219.945 489.098 265.062 486.552 265.062 483.41C265.062 480.269 219.945 477.723 164.291 477.723C108.637 477.723 63.5199 480.269 63.5199 483.41C63.5199 486.552 108.637 489.098 164.291 489.098Z" fill="#E3E9EF"/>
<path opacity="0.2" fill-rule="evenodd" clip-rule="evenodd" d="M245.374 68.0772L250.624 48.6813C242.895 34.3897 246.687 16.7438 259.52 6.82715C272.353 -3.08951 290.437 -2.06868 302.249 9.01465C314.062 20.098 315.957 38.1813 306.77 51.598C297.582 65.0147 280.082 69.6813 265.499 62.6813L245.374 68.0772Z" fill="url(#paint0_linear)"/>
<path opacity="0.2" fill-rule="evenodd" clip-rule="evenodd" d="M425.187 439.952C375.457 443.306 327.916 426.827 280.52 415.306C249.312 407.723 218.103 407.577 186.02 405.244C104.353 399.411 16.4157 376.661 1.83236 301.265C-10.2718 238.265 38.5824 154.411 119.082 129.911C146.937 121.452 173.77 122.765 199.145 128.89C214.312 132.536 230.791 140.702 248.291 137.056C266.812 133.265 282.707 117.369 296.562 106.431C317.27 90.0981 338.999 72.8897 364.812 63.5564C423.874 41.9731 451.728 75.0772 460.624 124.369C464.999 148.286 465.437 172.786 468.207 196.848C472.145 231.119 488.041 257.806 505.978 287.411C522.02 313.806 536.166 343.994 528.145 373.598C519.103 407.14 482.937 430.473 445.603 437.327C438.749 438.786 431.895 439.515 425.187 439.952Z" fill="url(#paint1_linear)"/>
<path d="M518.59 479.91C518.59 484.723 661.263 488.66 518.59 488.66C375.917 488.66 382.038 482.39 382.038 477.577C382.038 472.765 375.917 471.16 518.59 471.16C661.263 471.306 518.59 475.098 518.59 479.91Z" fill="#E3E9EF"/>
<path opacity="0.2" fill-rule="evenodd" clip-rule="evenodd" d="M405.499 144.202C443.562 113.431 495.187 149.598 485.707 188.098C495.187 149.744 557.457 141.285 577.145 186.056C597.562 232.431 551.187 293.827 455.52 312.056C378.812 251.681 366.124 175.994 405.499 144.202Z" fill="url(#paint2_linear)"/>
<path fill-rule="evenodd" clip-rule="evenodd" d="M291.25 44.5354C291.25 46.4674 289.682 48.0354 287.75 48.0354C285.818 48.0354 284.25 46.4674 284.25 44.5354C284.25 42.6034 285.818 41.0354 287.75 41.0354C289.682 41.0354 291.25 42.6034 291.25 44.5354ZM266.75 39.2854C263.856 39.2854 261.5 41.6409 261.5 44.5354C261.5 47.4299 263.856 49.7854 266.75 49.7854H291.25C294.145 49.7854 296.5 47.4299 296.5 44.5354C296.5 41.6409 294.145 39.2854 291.25 39.2854H266.75ZM300 44.5354C300 49.3671 296.082 53.2854 291.25 53.2854H266.75C261.918 53.2854 258 49.3671 258 44.5354C258 39.7037 261.918 35.7854 266.75 35.7854H291.25C296.082 35.7854 300 39.7037 300 44.5354ZM300 23.5354C300 28.3672 296.082 32.2854 291.25 32.2854H266.75C261.918 32.2854 258 28.3672 258 23.5354C258 18.7037 261.918 14.7854 266.75 14.7854H291.25C296.082 14.7854 300 18.7037 300 23.5354ZM273.75 23.5354C273.75 21.6034 272.182 20.0354 270.25 20.0354C268.318 20.0354 266.75 21.6034 266.75 23.5354C266.75 25.4674 268.318 27.0354 270.25 27.0354C272.182 27.0354 273.75 25.4674 273.75 23.5354Z" fill="url(#paint3_linear)"/>
<path d="M224.082 335.973H113.249C113.249 335.973 108.728 362.806 106.832 392.994C125.791 398.098 145.916 401.452 166.041 403.494C166.77 399.265 167.499 395.91 168.374 394.16L169.686 403.785C175.082 404.369 180.478 404.806 185.728 405.098C199.874 406.119 213.728 406.702 227.582 407.723C228.02 382.64 227.145 355.952 224.082 335.973Z" fill="#222C49"/>
<path d="M166.916 162.577C182.299 162.577 194.77 159.77 194.77 156.306C194.77 152.843 182.299 150.035 166.916 150.035C151.532 150.035 139.062 152.843 139.062 156.306C139.062 159.77 151.532 162.577 166.916 162.577Z" fill="#E3E9EF"/>
<path d="M227.728 271.369C221.603 278.369 218.686 287.556 219.707 296.889C220.291 302.139 222.77 307.827 227.728 309.431C232.686 311.035 237.791 307.827 241.874 304.619C244.061 302.869 246.395 300.681 246.395 297.764C246.395 297.473 246.395 297.181 246.249 296.889C245.957 296.598 245.52 296.306 244.936 296.306C243.186 296.452 241.582 297.035 240.124 297.91C238.52 298.785 236.77 298.494 235.311 297.327C234.728 296.452 234.582 295.577 234.582 294.702C234.436 292.952 233.853 290.764 233.27 289.014C232.395 285.66 233.416 281.431 232.249 278.077C231.52 276.035 229.916 274.723 229.332 272.535L227.728 271.369Z" fill="#C69071"/>
<path fill-rule="evenodd" clip-rule="evenodd" d="M122.339 251.014C121.756 269.097 120.103 244.973 119.52 266.848C118.791 292.223 115.728 317.306 110.186 342.098C150.145 342.39 187.77 342.39 227.728 342.098C222.187 317.598 218.687 292.66 217.666 267.577C217.374 247.744 216.937 235.785 219.416 216.244C219.707 213.765 220.437 207.494 223.207 207.202C223.207 207.202 235.749 222.952 254.853 239.14C254.853 241.473 253.103 243.515 251.499 245.119C244.499 252.265 235.312 264.66 227.728 271.515L233.27 289.16C250.041 275.306 268.562 263.785 281.395 246.577C284.603 242.64 287.812 237.535 286.499 232.723C285.77 230.535 284.457 228.64 282.707 227.035C282.707 227.035 255.728 177.452 224.52 159.952C217.52 156.015 216.645 155.577 209.937 155.577C203.52 156.89 199.874 158.64 193.166 160.098L166.624 162.723L140.957 160.098C136.582 160.39 134.103 160.244 131.916 160.244C125.791 160.098 119.666 161.994 114.707 165.64C100.561 176.431 67.749 218.285 70.8115 242.056C74.6032 272.39 133.666 243.369 133.666 243.369L122.339 251.014Z" fill="url(#paint4_linear)"/>
<path d="M208.332 88.3479C208.332 97.3896 205.124 105.556 202.353 113.14C195.645 130.64 183.832 142.598 168.228 142.598C152.624 142.598 140.666 130.494 134.103 113.14C131.187 105.702 128.124 97.3896 128.124 88.3479C128.124 58.3062 146.062 34.0979 168.228 34.0979C190.395 34.0979 208.332 58.3062 208.332 88.3479Z" fill="#C69071"/>
<path d="M188.207 45.0354C188.207 45.0354 149.27 59.0354 141.249 65.0146C135.27 69.3896 132.061 78.4313 132.061 78.4313C132.061 78.4313 129.728 77.8479 128.707 83.9729C127.686 89.6604 125.645 68.2229 124.332 63.4104C122.582 53.0563 125.936 42.4104 133.666 34.9729C144.311 24.9104 155.832 17.4729 165.603 18.0563C175.082 18.2021 184.27 21.9938 191.124 28.8479C198.853 36.2854 200.603 35.7021 202.207 36.5771C203.811 37.3063 211.686 45.7646 212.853 54.9521C213.874 64.1396 208.478 88.2021 208.478 88.2021C208.478 88.2021 207.895 78.8688 206.145 77.4104C204.395 75.9521 204.541 68.3688 197.832 55.8271C192.874 46.7854 188.207 45.0354 188.207 45.0354Z" fill="url(#paint5_linear)"/>
<path d="M167.353 162.577C170.562 162.577 174.062 163.306 177.27 163.306C180.187 163.452 182.957 163.306 185.728 162.577C185.874 162.577 186.02 162.577 186.312 162.577C186.166 155.577 186.02 141.723 185.582 134.723C174.937 134.577 162.103 134.14 151.457 134.577C151.457 134.577 150.582 156.744 149.999 164.181C155.832 164.473 161.374 162.577 167.353 162.577Z" fill="#BA8368"/>
<path d="M208.332 89.2229C208.187 88.4937 204.978 93.3062 204.395 95.3479C202.937 102.494 198.999 108.765 193.312 113.285C191.853 114.306 191.124 114.598 190.103 113.14C188.499 111.098 186.312 109.494 184.124 108.327C179.749 105.848 158.02 105.702 154.082 107.452C151.166 108.91 148.541 110.806 146.499 113.431C145.478 114.452 144.895 114.452 143.582 113.577C139.499 110.515 136.145 106.577 134.395 101.765C132.937 98.4104 131.77 94.7645 130.603 91.1187C130.312 89.6604 128.416 86.5979 128.416 87.4729C127.687 93.5979 127.395 99.7229 127.832 105.848C127.978 108.91 128.853 112.119 130.312 114.89C134.687 122.765 139.499 130.494 147.228 136.035C150.145 138.077 152.916 139.827 156.27 141.14C160.937 143.327 166.041 144.202 170.999 144.056C176.541 143.327 181.937 141.431 186.749 138.369C190.395 136.181 193.749 133.702 196.957 130.64C199.291 128.16 201.332 125.244 202.937 122.181C204.687 119.119 206.291 115.91 207.749 112.702C209.062 109.64 209.499 106.431 209.499 102.931C209.207 98.2645 208.77 93.7437 208.332 89.2229ZM177.853 122.91C176.541 123.785 174.937 123.785 173.77 122.91C170.562 121.16 166.77 121.16 163.562 122.765C161.812 123.785 159.187 123.64 157.582 122.181C156.707 121.598 155.978 120.869 154.957 120.14C158.166 119.265 161.228 117.515 163.562 115.035C165.312 113.285 171.582 113.577 173.478 115.181C175.666 117.515 178.582 119.119 181.499 119.994C180.478 121.452 179.166 122.327 177.853 122.91Z" fill="url(#paint6_linear)"/>
<path d="M164.582 162.139L139.062 156.306V173.514L166.916 162.577L164.582 162.139Z" fill="#E7E6E7"/>
<path fill-rule="evenodd" clip-rule="evenodd" d="M119.52 249.494C119.52 249.494 168.374 220.035 183.103 192.327C183.832 190.577 167.937 255.765 118.937 277.494L119.52 249.494Z" fill="#E82852"/>
<path d="M189.082 179.64C191.561 171.91 196.228 161.556 198.561 152.806L173.624 149.16C173.624 149.16 165.895 168.41 144.02 181.535" fill="url(#paint7_linear)"/>
<path d="M168.374 141.869C166.77 140.556 165.02 139.389 163.124 138.223C162.832 137.931 162.249 137.639 161.666 137.494C160.645 137.494 159.916 138.369 159.624 139.535C159.624 140.556 159.77 141.577 160.353 142.452C163.416 147.994 169.395 151.639 175.666 153.389C181.937 154.848 188.207 155.723 194.77 155.723C197.249 155.869 199.874 155.869 202.353 155.431C204.832 154.848 207.02 153.389 208.478 151.056C209.791 148.723 209.207 145.806 207.02 144.202C206.291 143.91 205.562 143.473 204.832 143.181C203.374 142.452 202.353 141.139 200.895 140.556C199.582 139.681 197.832 139.681 196.52 140.702L201.041 134.431C202.062 132.973 203.082 130.785 201.624 129.764C201.041 129.473 200.312 129.181 199.582 129.181C193.166 129.327 188.791 135.889 183.103 138.952C178.728 141.285 173.624 141.869 168.52 141.577" fill="#C69071"/>
<path fill-rule="evenodd" clip-rule="evenodd" d="M159.77 168.848C159.77 168.848 143.291 187.515 116.457 203.556L159.77 168.848Z" fill="#E82852"/>
<defs>
<linearGradient id="paint0_linear" x1="232.299" y1="76.4191" x2="312.234" y2="3.73314" gradientUnits="userSpaceOnUse">
<stop stop-color="#990024"/>
<stop offset="0.628794" stop-color="#FB406C"/>
<stop offset="0.976806" stop-color="#FF84A1"/>
</linearGradient>
<linearGradient id="paint1_linear" x1="-103.217" y1="487.394" x2="336.229" y2="-72.5096" gradientUnits="userSpaceOnUse">
<stop stop-color="#990024"/>
<stop offset="0.628794" stop-color="#FB406C"/>
<stop offset="0.976806" stop-color="#FF84A1"/>
</linearGradient>
<linearGradient id="paint2_linear" x1="345.222" y1="334.042" x2="556.813" y2="118.793" gradientUnits="userSpaceOnUse">
<stop stop-color="#990024"/>
<stop offset="0.628794" stop-color="#FB406C"/>
<stop offset="0.976806" stop-color="#FF84A1"/>
</linearGradient>
<linearGradient id="paint3_linear" x1="249.828" y1="58.0031" x2="295.238" y2="12.3652" gradientUnits="userSpaceOnUse">
<stop stop-color="#990024"/>
<stop offset="0.628794" stop-color="#FB406C"/>
<stop offset="0.976806" stop-color="#FF84A1"/>
</linearGradient>
<linearGradient id="paint4_linear" x1="28.5446" y1="365.199" x2="248.346" y2="130.768" gradientUnits="userSpaceOnUse">
<stop stop-color="#990024"/>
<stop offset="0.628794" stop-color="#FB406C"/>
<stop offset="0.976806" stop-color="#FF84A1"/>
</linearGradient>
<linearGradient id="paint5_linear" x1="119.229" y1="53.1866" x2="208.603" y2="53.1866" gradientUnits="userSpaceOnUse">
<stop stop-color="#2F2F2F"/>
<stop offset="1" stop-color="#2F2F2F"/>
</linearGradient>
<linearGradient id="paint6_linear" x1="123.355" y1="115.754" x2="205.476" y2="115.754" gradientUnits="userSpaceOnUse">
<stop stop-color="#2F2F2F"/>
<stop offset="1" stop-color="#2F2F2F"/>
</linearGradient>
<linearGradient id="paint7_linear" x1="133.407" y1="185.503" x2="168.179" y2="131.534" gradientUnits="userSpaceOnUse">
<stop stop-color="#990024"/>
<stop offset="0.628794" stop-color="#FB406C"/>
<stop offset="0.976806" stop-color="#FF84A1"/>
</linearGradient>
</defs>
</svg>
