<svg width="720" height="490" viewBox="0 0 720 490" fill="none" xmlns="http://www.w3.org/2000/svg">
<g clip-path="url(#clip0)">
<path opacity="0.2" fill-rule="evenodd" clip-rule="evenodd" d="M334.788 47.9619C327.477 47.9619 320.293 49.7614 313.367 52.8065C285.917 64.9873 265.65 90.5947 240.637 107.205C207.929 128.521 168.421 134.473 131.736 123.4C112.111 117.309 92.7418 106.651 72.4751 109.42C58.4936 111.357 45.6665 119.524 35.1484 129.352C14.8817 148.315 0.258843 175.583 -5.07901e-05 204.374C-0.125968 221.677 5.00485 238.564 11.6749 254.205C28.8631 293.516 57.9805 325.213 94.4093 343.761C130.966 362.171 172.782 364.386 210.879 350.267C242.946 337.948 269.883 314.14 295.794 290.332C329.914 258.634 365.701 224.583 385.583 180.151C396.742 155.236 403.541 123.953 395.46 96.9619C388.405 71.2162 360.314 48.1003 334.788 47.9619Z" fill="url(#paint0_linear)"/>
<path d="M308.892 14.0796L379.354 39.0027C380.508 39.3873 381.046 40.6181 380.662 41.7719L334.662 172.157C334.277 173.31 333.046 173.849 331.892 173.464L261.431 148.541C260.277 148.157 259.739 146.926 260.123 145.772L306.123 15.3873C306.508 14.3873 307.739 13.7719 308.892 14.0796ZM308.303 16.0001C308.179 15.9939 308.056 16.0414 308.02 16.0517L308.009 16.0527L262.02 146.404C261.979 146.53 261.994 146.598 262.055 146.636L262.098 146.656L332.525 171.567C332.65 171.609 332.719 171.593 332.756 171.533L332.776 171.491L378.764 41.1395C378.806 41.0143 378.791 40.9456 378.729 40.9076L378.687 40.8882L308.342 16.006L308.303 16.0001Z" fill="url(#paint1_linear)"/>
<path d="M312.2 23.9256L368.969 44.1564C369.431 44.2333 369.662 44.9256 369.508 45.3103L327.815 162.003C327.662 162.464 327.123 162.772 326.662 162.541L269.892 142.31C269.431 142.156 269.123 141.618 269.354 141.156L311.046 24.4641C311.2 24.0026 311.738 23.6949 312.2 23.9256ZM312.558 26.1759L271.606 140.798L326.303 160.29L367.256 45.6689L312.558 26.1759Z" fill="url(#paint2_linear)"/>
<path d="M303.046 137.157C305.723 137.157 307.892 139.326 307.892 142.003C307.892 144.679 305.723 146.849 303.046 146.849C300.37 146.849 298.2 144.679 298.2 142.003C298.2 139.326 300.37 137.157 303.046 137.157ZM303.046 139.157C301.474 139.157 300.2 140.431 300.2 142.003C300.2 143.575 301.474 144.849 303.046 144.849C304.618 144.849 305.892 143.575 305.892 142.003C305.892 140.431 304.618 139.157 303.046 139.157Z" fill="url(#paint3_linear)"/>
<path opacity="0.2" fill-rule="evenodd" clip-rule="evenodd" d="M233.099 58.7586L229.638 52.2529L206.661 64.7106L194.203 41.8716L187.836 45.332L200.293 68.171L177.316 80.6286L180.915 87.1343L203.754 74.6767L216.212 97.5156L222.579 93.9168L210.26 71.0778L233.099 58.7586Z" fill="url(#paint4_linear)"/>
<path fill-rule="evenodd" clip-rule="evenodd" d="M381.067 131.428L345.356 118.001C344.387 117.586 343.279 118.14 343.002 119.109L341.757 122.431C341.341 123.4 341.895 124.507 342.864 124.784L376.776 137.518C377.745 137.934 378.161 138.902 377.884 139.871L376.638 143.055C376.084 144.301 377.192 145.685 378.576 145.547L398.508 143.609C400.031 143.47 400.723 141.671 399.754 140.563L386.327 125.753C385.358 124.784 383.697 125.061 383.282 126.306L381.067 131.428Z" fill="url(#paint5_linear)"/>
<path fill-rule="evenodd" clip-rule="evenodd" d="M245.971 89.4876L281.683 102.914C282.652 103.329 283.76 102.776 284.036 101.807L285.282 98.4848C285.697 97.5159 285.144 96.4085 284.175 96.1317L250.262 83.3972C249.293 82.982 248.878 82.013 249.155 81.0441L250.401 77.8605C250.954 76.6147 249.847 75.2306 248.463 75.369L228.531 77.3068C227.008 77.4452 226.316 79.2447 227.285 80.352L240.711 95.1628C241.68 96.1317 243.341 95.8549 243.757 94.6091L245.971 89.4876Z" fill="url(#paint6_linear)"/>
<path opacity="0.2" fill-rule="evenodd" clip-rule="evenodd" d="M424.531 121.462C441.833 118.001 452.214 138.21 442.663 148.869C452.076 138.21 473.392 145.962 472.147 163.541C470.901 181.674 445.847 193.578 412.212 183.335C397.954 151.222 406.536 125.061 424.531 121.462Z" fill="url(#paint7_linear)"/>
<path d="M133.991 488.823C198.512 488.823 250.816 485.849 250.816 482.179C250.816 478.51 198.512 475.535 133.991 475.535C69.4706 475.535 17.1664 478.51 17.1664 482.179C17.1664 485.849 69.4706 488.823 133.991 488.823Z" fill="#E3E9EF"/>
<path d="M85.8218 233.165L85.5449 239.394L99.3867 451.45L116.135 452.281C116.135 452.281 128.593 309.295 128.731 304.312C128.87 299.329 131.223 283.965 131.223 283.965C131.223 283.965 149.632 344.038 149.632 348.744C149.632 353.45 141.189 454.634 141.189 454.634L160.291 456.295C160.291 456.295 175.655 388.055 175.932 381.688C176.209 375.182 182.714 341.823 182.299 335.318C181.884 328.812 174.132 227.352 174.132 227.352L85.8218 233.165Z" fill="#222C49"/>
<path opacity="0.07" d="M152.401 454.358C149.217 447.16 148.664 431.934 148.94 426.951C149.217 421.968 164.028 369.784 166.243 349.16C168.457 328.535 150.601 310.68 144.926 302.513C139.113 294.208 130.531 280.366 128.593 273.583C128.593 273.583 144.373 327.29 148.387 342.377C152.124 357.326 145.895 386.394 146.31 392.485C146.726 395.53 142.85 435.256 141.189 454.634" fill="black"/>
<path d="M144.234 89.4874L143.819 64.2953C143.819 64.2953 156 65.1258 157.661 55.5749C159.599 46.1625 160.844 31.9054 152.124 17.6484C143.404 3.3913 130.392 6.57492 130.392 6.57492L114.613 26.6455L116.551 66.5099V73.9845L116.135 88.5184" fill="#C69071"/>
<path d="M130.115 33.1512C126.517 29.9676 123.471 27.1992 124.163 33.5665C124.994 39.9337 124.994 68.3094 116.689 63.6032C113.921 62.0806 112.398 59.5891 110.322 55.7134C106.031 46.993 103.954 37.1653 104.37 27.3377C104.785 21.3857 105.892 15.5721 108.384 11.558C114.336 3.25292 127.347 0.484556 131.223 0.0693022C135.099 -0.345952 149.356 0.899811 153.37 9.48173C157.384 18.0637 152.539 17.3716 152.539 17.3716C152.539 17.3716 149.771 11.4196 141.881 11.0043C133.576 10.5891 129.285 26.784 134.406 32.3207C134.406 32.3207 146.172 46.8546 159.183 44.2247C159.183 44.2247 161.536 66.6484 143.819 63.6032C127.347 61.5269 130.115 33.1512 130.115 33.1512Z" fill="url(#paint8_linear)"/>
<path d="M129.726 38.7941C131.651 37.4123 131.369 33.7244 129.096 30.557C126.822 27.3897 123.419 25.9423 121.494 27.3241C119.568 28.706 119.85 32.3938 122.124 35.5612C124.397 38.7285 127.801 40.176 129.726 38.7941Z" fill="#C69071"/>
<path d="M279.33 124.369C279.33 124.369 300.093 113.572 308.121 112.741C316.149 111.911 299.539 118.693 298.017 121.047C296.494 123.261 303.276 129.075 298.432 132.674C293.587 136.411 287.22 135.719 283.206 135.58C279.33 135.58 275.178 136.688 275.178 136.688L279.33 124.369Z" fill="#C69071"/>
<path d="M100.217 454.081L101.186 466.815L107.969 471.936L114.059 465.569L114.336 454.219L100.217 454.081Z" fill="#C69071"/>
<path d="M143.68 456.572L143.404 468.753L149.494 475.812L156.138 470.137L157.937 459.202L143.68 456.572Z" fill="#C69071"/>
<path d="M114.059 465.154C114.059 465.154 124.994 469.722 135.099 471.383C145.203 473.044 138.974 476.089 138.974 476.089C138.974 476.089 107.553 480.795 98.1409 479.273C88.7285 477.75 100.771 464.185 100.771 464.185C100.771 464.185 105.615 468.753 114.059 465.154Z" fill="#1C1C1C"/>
<path d="M272.963 125.338C274.209 125.199 279.745 123.677 279.745 123.677L281.13 136.55L274.347 138.764L272.963 125.338Z" fill="#E3E9EF"/>
<path d="M156.138 470.137C156.138 470.137 159.737 470.691 171.918 474.151C184.237 477.611 177.87 480.241 177.87 480.241C177.87 480.241 152.678 483.84 143.957 480.933C135.375 478.027 143.265 468.614 143.265 468.614C143.265 468.614 149.633 474.151 156.138 470.137Z" fill="#1C1C1C"/>
<path d="M107.276 75.7839L116.412 68.7246C116.412 68.7246 133.161 70.8009 144.234 77.8602L146.726 83.6738H107.276V75.7839Z" fill="#E3E9EF"/>
<path fill-rule="evenodd" clip-rule="evenodd" d="M214.274 134.196C214.274 134.196 173.994 93.2246 153.231 84.5042C146.172 80.4901 138.836 77.7217 132.469 75.7839C122.364 72.7387 111.567 73.5692 101.878 77.8601C100.632 78.4138 99.2482 79.1059 97.7256 79.798C94.1267 81.459 91.2199 83.9505 89.0053 86.7189C83.8838 92.8093 81.5307 100.838 81.6691 108.727L85.268 247.145C85.268 247.145 159.46 256.281 175.517 233.442L176.901 152.883C189.358 159.804 204.308 164.787 220.641 163.126C226.178 162.572 229.084 161.326 236.005 159.112L276.977 140.287L275.039 123.953C275.039 123.953 233.791 131.29 214.274 134.196Z" fill="url(#paint9_linear)"/>
<path fill-rule="evenodd" clip-rule="evenodd" d="M82.0844 102.36L64.9206 154.544C64.9206 154.544 58.1381 170.877 70.1805 179.321C82.2229 187.626 83.8839 189.287 83.8839 189.287" fill="#E82852"/>
<path opacity="0.41" d="M176.901 152.883C176.901 152.883 155.169 139.733 144.511 126.86C144.511 126.86 163.336 166.863 176.486 173.092L176.901 152.883Z" fill="#BA001B"/>
<path d="M97.5872 453.942L96.7567 448.267L117.796 448.821L117.381 454.634L97.5872 453.942Z" fill="#1C1C1C"/>
<path d="M140.22 451.035L140.497 455.88L160.844 459.755L162.367 454.634L140.22 451.035Z" fill="#1C1C1C"/>
<path d="M563.5 474.824C637.782 474.824 698 470.347 698 464.824C698 459.301 637.782 454.824 563.5 454.824C489.218 454.824 429 459.301 429 464.824C429 470.347 489.218 474.824 563.5 474.824Z" fill="#E3E9EF"/>
<g opacity="0.5">
<g opacity="0.2">
<path opacity="0.2" fill-rule="evenodd" clip-rule="evenodd" d="M553.711 243.616C564.09 247.966 574.125 251.99 583.689 255.96C583.906 256.558 583.979 256.757 583.979 256.757C580.11 267.196 577.057 278.016 572.101 287.947C558.628 314.752 529.028 328.234 498.946 321.799C472.503 316.07 455.814 299.341 447.341 274.203C438.723 248.666 443.362 224.852 462.201 205.352C482.216 184.746 507.219 177.226 535.635 181.559C550.92 183.898 565.03 189.825 578.815 196.097C591.513 201.861 604.284 207.824 617.108 213.316C626.944 217.413 637.104 218.682 647.478 215.583C665.439 210.401 676.22 192.93 672.062 175.93C668.286 160.597 648.537 144.756 628.587 153.146C621.961 156.009 617.056 160.503 613.601 166.502C610.798 171.812 608.339 177.449 606.079 183.013C604.885 185.931 603.964 188.975 602.789 192.564C592.881 188.268 583.244 184.099 573.336 179.803C578.069 161.825 582.748 144.317 596.665 131.124C625.549 103.903 671.366 107.096 696.232 138.234C714.5 161.161 718.754 186.48 706.493 213.52C699.857 228.128 688.274 238.439 674.136 246.069C648.503 259.914 622.715 258.463 596.667 247.623C578.282 239.865 560.042 232.506 541.53 225.02C531.966 221.051 522.095 218.096 511.629 220.325C498.158 222.97 488.511 230.545 485.133 244.192C481.828 258.039 485.711 269.946 496.618 278.845C512.128 291.714 536.372 285.825 545.106 267.067C547.005 262.99 548.161 258.731 549.589 254.599C551.035 251.137 552.409 247.476 553.711 243.616Z" fill="url(#paint10_linear)"/>
</g>
</g>
</g>
<defs>
<linearGradient id="paint0_linear" x1="-77.6406" y1="397.598" x2="284.751" y2="-30.0876" gradientUnits="userSpaceOnUse">
<stop stop-color="#990024"/>
<stop offset="0.628794" stop-color="#FB406C"/>
<stop offset="0.976806" stop-color="#FF84A1"/>
</linearGradient>
<linearGradient id="paint1_linear" x1="236.498" y1="193.143" x2="413.122" y2="69.988" gradientUnits="userSpaceOnUse">
<stop stop-color="#990024"/>
<stop offset="0.628794" stop-color="#FB406C"/>
<stop offset="0.976806" stop-color="#FF84A1"/>
</linearGradient>
<linearGradient id="paint2_linear" x1="249.763" y1="179.624" x2="400.771" y2="79.094" gradientUnits="userSpaceOnUse">
<stop stop-color="#990024"/>
<stop offset="0.628794" stop-color="#FB406C"/>
<stop offset="0.976806" stop-color="#FF84A1"/>
</linearGradient>
<linearGradient id="paint3_linear" x1="296.314" y1="148.037" x2="307.708" y2="137.54" gradientUnits="userSpaceOnUse">
<stop stop-color="#990024"/>
<stop offset="0.628794" stop-color="#FB406C"/>
<stop offset="0.976806" stop-color="#FF84A1"/>
</linearGradient>
<linearGradient id="paint4_linear" x1="166.462" y1="104.334" x2="231.887" y2="43.9103" gradientUnits="userSpaceOnUse">
<stop stop-color="#990024"/>
<stop offset="0.628794" stop-color="#FB406C"/>
<stop offset="0.976806" stop-color="#FF84A1"/>
</linearGradient>
<linearGradient id="paint5_linear" x1="330.218" y1="148.95" x2="356.754" y2="97.2356" gradientUnits="userSpaceOnUse">
<stop stop-color="#990024"/>
<stop offset="0.628794" stop-color="#FB406C"/>
<stop offset="0.976806" stop-color="#FF84A1"/>
</linearGradient>
<linearGradient id="paint6_linear" x1="215.438" y1="106.447" x2="241.974" y2="54.7332" gradientUnits="userSpaceOnUse">
<stop stop-color="#990024"/>
<stop offset="0.628794" stop-color="#FB406C"/>
<stop offset="0.976806" stop-color="#FF84A1"/>
</linearGradient>
<linearGradient id="paint7_linear" x1="391.995" y1="195.207" x2="469.728" y2="122.408" gradientUnits="userSpaceOnUse">
<stop stop-color="#990024"/>
<stop offset="0.628794" stop-color="#FB406C"/>
<stop offset="0.976806" stop-color="#FF84A1"/>
</linearGradient>
<linearGradient id="paint8_linear" x1="101.449" y1="32.1307" x2="156.586" y2="32.1307" gradientUnits="userSpaceOnUse">
<stop stop-color="#2F2F2F"/>
<stop offset="1" stop-color="#2F2F2F"/>
</linearGradient>
<linearGradient id="paint9_linear" x1="43.659" y1="270.392" x2="249.974" y2="58.2413" gradientUnits="userSpaceOnUse">
<stop stop-color="#990024"/>
<stop offset="0.628794" stop-color="#FB406C"/>
<stop offset="0.976806" stop-color="#FF84A1"/>
</linearGradient>
<linearGradient id="paint10_linear" x1="426.976" y1="380.474" x2="492.787" y2="61.97" gradientUnits="userSpaceOnUse">
<stop stop-color="#990024"/>
<stop offset="0.628794" stop-color="#FB406C"/>
<stop offset="0.976806" stop-color="#FF84A1"/>
</linearGradient>
<clipPath id="clip0">
<rect width="720" height="490" fill="white"/>
</clipPath>
</defs>
</svg>
